<?xml version="1.0" standalone="no"?>
<!DOCTYPE svg PUBLIC "-//W3C//DTD SVG 20010904//EN"
 "http://www.w3.org/TR/2001/REC-SVG-20010904/DTD/svg10.dtd">
<svg version="1.0" xmlns="http://www.w3.org/2000/svg"
 width="1944.000000pt" height="1944.000000pt" viewBox="0 0 1944.000000 1944.000000"
 preserveAspectRatio="xMidYMid meet">
<metadata>
Created by potrace 1.11, written by Peter Selinger 2001-2013
</metadata>
<g transform="translate(0.000000,1944.000000) scale(0.100000,-0.100000)"
fill="#000000" stroke="none">
<path d="M4658 18394 c-5 -81 -1 -464 6 -544 18 -213 28 -282 66 -460 64 -305
173 -559 323 -749 119 -152 471 -496 651 -636 21 -16 48 -38 60 -49 39 -34
201 -153 297 -216 52 -35 97 -66 101 -69 4 -4 12 -42 18 -86 15 -108 18 -127
24 -133 3 -2 84 -24 181 -47 97 -24 177 -44 179 -46 1 -2 17 -40 35 -84 17
-45 54 -121 81 -169 112 -200 217 -296 342 -312 135 -18 335 -104 518 -222
161 -105 319 -240 320 -274 1 -31 18 21 25 77 13 99 14 106 15 220 1 124 -12
199 -46 266 -12 25 -19 50 -15 55 10 11 46 114 62 174 15 61 19 178 7 237 -5
26 -23 75 -39 107 -37 75 -37 125 -3 194 29 57 111 137 180 174 47 25 47 23
45 126 l-1 62 33 0 c30 0 48 14 150 117 64 65 115 119 113 120 -2 2 -23 -5
-48 -16 -79 -34 -204 -53 -343 -52 -109 0 -177 7 -340 36 -17 2 -91 20 -177
41 -10 2 -26 6 -35 8 -99 23 -414 140 -569 212 -92 42 -333 162 -384 191 -19
11 -62 35 -95 53 -266 147 -737 457 -920 605 -264 214 -499 517 -686 883 -26
51 -62 128 -79 170 -18 42 -36 81 -40 86 -4 4 -10 -18 -12 -50z"/>
<path d="M7648 17515 c-2 -1 -50 -6 -108 -9 -58 -4 -121 -8 -140 -11 -19 -2
-62 -6 -95 -10 -73 -8 -103 -12 -225 -30 -174 -26 -177 -27 -400 -71 -14 -3
-53 -11 -88 -19 -34 -8 -74 -17 -90 -20 -99 -17 -647 -179 -656 -193 -8 -13
351 -244 559 -362 17 -9 53 -29 80 -45 571 -321 1133 -509 1525 -508 154 0
284 24 339 63 114 80 691 436 671 414 -39 -44 -112 -124 -140 -153 -23 -24
-232 -251 -255 -277 -9 -10 -120 -131 -270 -293 -33 -35 -68 -73 -77 -82 -14
-15 -15 -21 -5 -31 7 -7 87 -98 177 -203 91 -104 168 -192 172 -195 4 -3 -4
-23 -18 -43 -82 -121 -8 -239 218 -350 100 -49 266 -108 338 -121 14 -2 37 -7
51 -11 23 -6 27 -2 43 39 32 82 91 136 237 212 101 53 149 85 202 135 l70 66
54 -23 c165 -73 307 -157 438 -259 88 -68 217 -196 266 -262 17 -24 34 -43 39
-43 18 0 40 200 40 365 0 317 -56 560 -195 840 -102 206 -266 422 -410 541
-54 44 -139 84 -260 124 -234 76 -341 152 -664 471 -65 64 -129 122 -143 130
-192 105 -331 156 -501 184 -17 3 -43 7 -57 10 -14 2 -52 7 -85 11 -33 3 -73
8 -90 11 -33 5 -542 13 -547 8z"/>
<path d="M4860 16578 c-25 -22 -88 -80 -140 -128 -364 -334 -524 -437 -771
-494 -89 -20 -166 -27 -292 -27 -164 0 -229 29 -306 139 -12 18 -27 30 -32 27
-14 -9 -11 -101 5 -139 22 -53 107 -129 193 -173 119 -62 313 -125 488 -159
22 -4 47 -9 55 -11 8 -2 62 -3 120 -4 104 0 178 9 233 30 16 6 30 11 33 11 10
0 -78 -128 -123 -179 -151 -172 -328 -299 -545 -393 -90 -39 -285 -101 -348
-112 -19 -3 -46 -8 -60 -11 -14 -3 -45 -8 -70 -11 -25 -3 -53 -8 -64 -10 -20
-4 -165 -13 -291 -18 -44 -2 -100 -9 -125 -15 -61 -16 -168 -51 -205 -66 -16
-7 -55 -23 -85 -35 -291 -119 -540 -290 -641 -440 -22 -33 -53 -100 -46 -100
1 0 31 10 67 21 36 11 72 22 80 24 8 2 62 15 120 28 90 21 168 37 314 61 112
19 378 26 501 14 79 -8 107 -13 185 -33 264 -68 629 -19 937 125 248 116 489
314 671 550 36 47 70 90 75 95 28 31 -74 -361 -123 -470 -5 -11 -23 -53 -40
-94 -28 -64 -49 -107 -94 -185 -98 -171 -250 -334 -389 -418 -142 -86 -364
-158 -487 -158 -93 0 -164 36 -197 100 -23 45 -23 45 -16 10 16 -93 70 -188
146 -260 83 -78 271 -155 427 -175 30 -4 57 -7 60 -8 3 -1 36 2 74 6 130 15
315 106 458 229 31 26 59 48 62 48 3 0 -1 -15 -9 -34 -19 -46 -72 -232 -79
-277 -3 -20 -8 -42 -10 -50 -3 -8 -7 -30 -10 -49 -3 -19 -8 -46 -10 -60 -46
-252 -55 -718 -20 -1030 9 -79 24 -196 29 -221 3 -13 8 -44 11 -69 3 -25 10
-63 14 -85 5 -22 11 -54 14 -71 3 -16 19 -90 36 -163 30 -135 33 -148 44 -211
3 -19 9 -48 12 -65 15 -71 13 -390 -2 -468 -65 -337 -265 -549 -599 -636 -37
-10 -151 -24 -185 -23 -57 1 -219 -49 -323 -100 -69 -34 -220 -127 -237 -147
-3 -3 -30 -26 -60 -51 -201 -164 -392 -434 -529 -748 -96 -217 -212 -623 -245
-857 -4 -22 -8 -51 -11 -65 -5 -30 -12 -78 -20 -145 -3 -27 -10 -84 -15 -125
-5 -41 -12 -118 -15 -170 -4 -52 -15 -128 -26 -168 -10 -40 -19 -76 -19 -81 0
-5 82 -7 183 -6 251 3 387 -16 572 -78 93 -31 106 -38 265 -131 l95 -56 3 110
3 110 52 1 c628 6 1468 -2 1557 -16 14 -2 45 -6 70 -10 133 -19 299 -70 425
-131 133 -63 236 -135 341 -236 52 -50 94 -87 95 -82 0 5 1 111 1 237 0 139 4
229 10 233 5 4 312 6 681 6 l670 0 40 25 c133 84 323 115 480 79 173 -40 362
-180 435 -321 14 -27 25 -53 24 -57 -1 -3 26 -30 60 -60 154 -133 281 -289
340 -418 l21 -47 76 23 c42 12 87 25 101 28 17 3 26 13 27 25 2 19 12 76 63
346 11 55 22 114 25 130 2 17 7 43 11 58 3 16 7 38 9 50 2 12 6 40 10 62 4 22
8 45 9 52 4 22 13 24 139 25 88 0 124 4 122 12 -25 81 -48 154 -52 166 -4 8
-7 17 -8 20 -1 3 -6 16 -12 30 -6 14 -23 54 -38 90 -43 104 -124 257 -195 370
-254 406 -578 711 -981 924 -136 72 -362 162 -479 191 -129 32 -505 159 -605
205 -11 5 -107 43 -213 84 -357 140 -644 272 -757 349 -21 14 -137 111 -258
214 -209 178 -217 187 -195 199 13 6 131 55 263 109 249 100 348 149 438 212
168 121 255 237 264 357 6 71 -19 171 -119 471 -64 191 -236 662 -269 732 -10
24 -19 47 -19 53 0 6 -8 29 -19 53 -10 23 -31 74 -46 112 -15 39 -33 84 -40
100 -27 63 -156 381 -165 405 -5 14 -12 54 -16 90 -3 36 -8 74 -10 85 -7 31
-7 345 -1 390 3 22 9 65 12 95 20 162 98 398 167 505 133 204 287 323 503 388
88 26 118 30 245 32 80 2 170 -1 200 -6 30 -5 71 -11 90 -14 43 -7 232 -60
283 -80 80 -32 54 -11 -65 52 -94 50 -219 99 -273 107 -89 14 -112 20 -160 41
-89 41 -189 138 -271 267 -37 58 -120 221 -137 270 -4 11 -30 22 -79 33 -40 9
-76 16 -80 16 -4 0 -26 6 -48 14 -22 8 -40 12 -40 10 0 -2 -15 1 -32 6 -18 5
-46 12 -63 15 -39 7 -43 12 -50 57 -3 20 -7 54 -10 75 -4 20 -9 55 -12 77 -5
35 -30 75 -49 75 -17 0 -422 303 -454 339 -3 3 -36 33 -75 66 -122 104 -356
335 -466 460 -24 27 -48 55 -54 61 -5 6 -21 27 -35 47 -14 20 -27 37 -30 37
-3 0 -25 -19 -50 -42z"/>
<path d="M8116 15698 l-98 -81 7 -131 c4 -72 9 -149 11 -171 3 -38 9 -138 19
-300 12 -194 17 -230 31 -238 9 -5 72 -54 141 -110 185 -150 178 -145 221
-138 51 10 167 5 226 -8 59 -14 103 -35 137 -68 l27 -25 48 37 c59 45 88 58
133 56 86 -2 171 -78 252 -227 43 -78 51 -88 130 -141 179 -120 345 -264 476
-415 55 -62 156 -219 188 -290 35 -78 35 -78 150 -23 67 32 150 90 240 168
l40 35 -16 49 -16 50 115 99 c167 143 156 138 149 73 -5 -54 -43 -166 -90
-269 -14 -30 -24 -57 -22 -58 3 -4 145 103 205 154 159 135 182 161 205 222
23 60 119 268 229 497 124 256 130 274 130 425 0 110 -3 134 -26 197 -29 80
-88 175 -152 241 -37 39 -157 132 -170 132 -3 0 -1 -12 4 -27 10 -32 46 -232
56 -313 4 -30 9 -75 13 -100 9 -61 -4 -152 -30 -202 -24 -47 -100 -125 -151
-155 l-34 -20 -27 46 c-14 25 -56 78 -92 116 -60 64 -66 68 -78 51 -6 -10 -24
-34 -39 -53 l-27 -34 29 -45 c57 -91 61 -192 7 -227 -35 -22 -64 -29 -64 -15
0 21 -43 149 -65 192 -114 226 -364 455 -656 601 l-93 46 -54 -48 c-30 -27
-106 -75 -170 -108 -64 -33 -131 -72 -149 -87 -55 -45 -83 -128 -65 -191 4
-15 5 -26 1 -23 -4 2 -35 7 -70 10 -187 20 -482 125 -633 227 -151 102 -217
238 -174 361 16 48 29 28 -135 217 -58 66 -109 121 -115 121 -5 0 -54 -37
-109 -82z"/>
<path d="M8012 14562 c0 -59 -3 -121 -6 -137 -3 -17 -7 -50 -10 -75 -3 -25 -8
-56 -11 -70 -19 -92 -19 -92 35 -133 27 -21 50 -44 50 -51 0 -24 -76 -131
-115 -161 -21 -16 -46 -37 -56 -45 -14 -11 -19 -31 -20 -76 -3 -74 -35 -179
-69 -221 -25 -31 -78 -65 -108 -70 -10 -1 -65 -5 -124 -8 -101 -5 -165 -11
-198 -20 -8 -2 -30 -7 -48 -10 -53 -9 -163 -53 -216 -87 -91 -59 -150 -133
-179 -223 -33 -107 -29 -133 18 -109 54 28 159 52 215 49 93 -5 152 -33 269
-130 203 -166 513 -478 821 -825 51 -58 107 -121 124 -140 17 -19 48 -55 70
-80 21 -25 65 -75 97 -111 l59 -67 73 -2 c238 -6 398 -1 472 15 11 3 32 7 46
9 144 23 317 101 452 203 31 25 61 41 67 38 5 -3 14 -20 19 -38 5 -18 30 -90
56 -162 26 -71 56 -156 67 -188 18 -51 22 -56 32 -40 7 10 38 59 68 108 53 86
56 94 62 173 7 94 15 115 60 155 39 36 171 126 213 147 l32 15 -39 62 c-21 34
-46 82 -54 107 -14 40 -14 50 -1 87 32 89 48 167 51 252 3 81 -5 110 -21 70
-3 -10 -43 -83 -88 -162 -70 -123 -82 -139 -85 -115 -4 40 -52 184 -61 184 -4
0 -29 -32 -56 -71 l-49 -72 -18 74 c-10 41 -22 83 -28 94 -5 11 -15 34 -21 50
l-11 30 -12 -45 c-24 -86 -50 -160 -55 -155 -7 7 -8 16 -15 130 -4 54 -9 102
-12 106 -10 16 -83 -31 -143 -91 -34 -33 -61 -65 -61 -70 0 -6 -4 -10 -9 -10
-5 0 -11 19 -15 43 -9 53 -77 257 -86 257 -4 0 -53 -44 -109 -99 -131 -128
-136 -132 -128 -106 3 11 9 56 13 100 19 230 3 382 -49 458 l-19 27 -49 -81
c-124 -207 -265 -327 -348 -298 -34 12 -66 68 -80 142 -14 74 -12 226 3 307
22 119 15 278 -18 374 -15 43 -41 99 -58 123 -30 44 -30 45 -7 38 32 -10 82
-40 101 -62 24 -27 58 -91 58 -111 1 -12 11 -5 35 22 29 35 35 38 50 26 24
-20 53 -80 70 -147 14 -52 21 -236 11 -298 -1 -11 -6 -45 -11 -75 -8 -61 -12
-82 -21 -122 -8 -41 -3 -39 68 24 53 48 129 154 184 255 26 48 49 90 50 92 5
6 126 -83 177 -131 36 -32 53 -59 71 -108 31 -86 117 -270 126 -270 4 0 24 37
43 83 20 45 39 82 44 82 4 0 12 -13 17 -30 5 -16 12 -39 17 -50 4 -11 11 -30
14 -43 6 -22 8 -21 39 20 17 24 40 56 50 71 10 16 19 27 22 25 2 -3 8 -38 14
-79 6 -41 12 -83 15 -94 2 -11 4 -29 4 -40 1 -15 24 4 91 75 l89 95 -30 -84
c-16 -46 -28 -86 -25 -88 3 -3 46 27 96 67 l91 71 -46 -63 -46 -63 30 -3 30
-3 -21 -57 c-11 -31 -21 -61 -22 -67 -2 -5 -8 -23 -14 -38 -20 -48 -14 -49 51
-12 34 19 102 56 151 82 173 90 256 208 261 369 l3 84 -31 -22 c-18 -12 -67
-48 -109 -80 -43 -33 -78 -56 -78 -53 0 3 17 38 37 77 21 40 43 85 50 100 l12
28 -37 -25 c-108 -73 -211 -111 -312 -117 l-45 -3 -20 60 c-79 237 -381 571
-677 750 -9 6 -34 20 -55 33 -31 18 -44 36 -63 83 -26 66 -94 165 -135 198
-49 38 -70 29 -160 -65 -92 -96 -81 -96 -130 -1 -23 44 -60 70 -125 87 -53 14
-155 15 -225 1 -48 -9 -51 -8 -92 25 -23 19 -48 40 -55 47 -23 22 -233 188
-249 197 -14 8 -16 -4 -17 -98z"/>
<path d="M6807 14264 c-1 -1 -26 -5 -55 -8 -244 -29 -414 -202 -491 -501 -32
-125 -45 -379 -28 -568 5 -62 18 -104 56 -195 26 -65 72 -175 101 -247 28 -71
58 -143 65 -160 43 -100 220 -574 301 -805 72 -205 150 -463 170 -563 35 -170
-6 -339 -120 -497 -95 -132 -291 -290 -479 -385 -42 -22 -76 -44 -74 -50 4
-12 199 -115 307 -161 283 -122 584 -240 555 -218 -11 8 -53 39 -94 69 -41 30
-103 82 -137 115 l-62 61 63 130 c57 117 91 203 100 252 2 9 6 21 9 25 6 11
13 45 32 167 26 166 21 430 -11 605 -3 14 -7 43 -11 65 -25 179 -159 630 -239
810 -8 17 -32 75 -56 130 -23 55 -64 147 -91 205 -131 275 -224 515 -254 654
-53 243 -40 432 39 566 65 111 200 202 334 224 70 12 192 13 253 2 19 -3 49
-8 65 -11 137 -25 411 -161 596 -295 50 -36 70 -46 77 -37 22 27 39 105 41
184 2 79 1 84 -26 109 -107 99 -458 259 -658 300 -11 2 -31 6 -45 9 -64 13
-224 26 -233 19z"/>
<path d="M6702 13821 c-74 -26 -122 -67 -157 -136 -28 -56 -30 -68 -30 -170 0
-101 10 -209 22 -227 2 -5 6 -16 8 -27 18 -94 115 -347 208 -541 149 -314 244
-558 347 -895 19 -62 50 -193 69 -295 27 -142 32 -176 46 -345 6 -64 6 -267 1
-325 -17 -175 -64 -380 -116 -495 -41 -91 -50 -119 -45 -134 6 -16 25 -30 173
-125 172 -110 437 -225 677 -294 155 -45 184 -52 279 -72 146 -30 309 -55 491
-75 105 -12 173 -28 279 -69 155 -58 367 -190 555 -344 169 -138 464 -438 646
-657 28 -33 58 -69 67 -80 44 -54 146 -184 168 -215 13 -19 27 -37 30 -40 8
-6 166 -225 245 -340 147 -211 319 -481 487 -764 36 -61 70 -112 76 -114 6 -2
22 14 36 35 68 99 240 247 383 329 124 71 316 142 432 160 18 3 43 8 55 10 90
18 400 25 526 12 416 -44 768 -243 969 -549 l58 -89 41 63 c51 78 131 169 213
242 64 57 201 153 252 176 15 7 27 15 27 19 0 30 -525 759 -590 820 -3 3 -25
30 -50 60 -303 372 -715 794 -1075 1102 -370 315 -733 564 -1035 710 -246 119
-645 254 -895 304 -11 2 -70 15 -130 28 -61 14 -139 30 -175 35 -36 6 -76 13
-90 15 -14 3 -59 10 -100 16 -41 6 -88 14 -105 16 -30 5 -53 8 -150 19 -27 4
-66 8 -85 10 -37 5 -131 13 -209 20 -25 2 -102 7 -171 10 -122 7 -126 8 -188
46 -35 22 -68 39 -72 39 -5 0 -10 3 -12 8 -1 4 -21 21 -44 37 -249 181 -484
491 -590 780 -14 39 -30 79 -34 90 -15 33 -36 105 -56 185 -18 73 -22 79 -133
205 -63 72 -122 137 -130 146 -9 9 -50 54 -91 100 -292 327 -693 695 -785 721
-95 26 -178 5 -312 -83 -75 -49 -77 -49 -85 -28 -5 12 -11 74 -14 138 -6 103
-4 123 16 181 56 164 169 276 352 349 70 28 204 61 248 61 11 0 20 3 20 8 0
23 -292 176 -405 212 -98 31 -269 36 -343 11z"/>
<path d="M9630 11861 c-96 -72 -320 -154 -482 -176 -21 -3 -57 -8 -80 -11 -45
-7 -334 -7 -380 -1 -36 5 -35 -3 3 -39 17 -16 92 -110 165 -209 156 -209 166
-220 259 -289 81 -60 397 -246 418 -246 1 0 3 9 4 21 2 25 31 103 54 144 37
68 114 201 122 210 24 30 107 165 107 175 0 6 -28 88 -61 183 -34 95 -68 191
-76 215 -8 23 -18 42 -21 42 -4 0 -18 -9 -32 -19z"/>
<path d="M18090 10723 c-228 -84 -412 -275 -521 -542 -40 -98 -33 -93 -239
-165 -80 -28 -157 -60 -170 -71 -57 -47 -113 -159 -159 -317 -31 -106 -30
-108 34 -42 42 44 139 121 178 140 17 10 53 23 79 29 42 12 51 11 95 -10 57
-27 96 -68 149 -154 38 -63 39 -64 161 -122 67 -33 138 -73 157 -89 71 -63 93
-188 72 -408 -4 -40 -9 -78 -11 -85 -2 -7 -6 -28 -9 -47 -3 -19 -10 -50 -15
-68 -5 -18 -10 -36 -11 -40 -2 -19 -24 -94 -47 -167 -41 -128 -89 -212 -157
-281 -99 -99 -200 -138 -353 -137 -78 1 -89 4 -175 47 -142 70 -191 105 -195
141 -5 44 -21 90 -61 178 -35 77 -35 80 -23 138 20 97 62 187 149 318 l83 124
-48 -6 c-61 -9 -230 -94 -373 -188 l-109 -73 4 -58 c6 -106 -42 -236 -117
-315 -29 -30 -30 -35 -25 -95 23 -252 136 -513 293 -675 50 -51 66 -62 104
-68 25 -3 99 -19 165 -35 104 -25 140 -29 264 -29 79 1 147 -3 151 -8 4 -4 28
-60 54 -123 26 -63 51 -124 56 -135 6 -13 9 30 9 123 l1 142 28 1 c15 0 361 0
770 1 l742 0 0 47 c0 26 6 55 14 66 50 74 64 113 55 151 -16 73 -12 85 81 214
l91 126 4 74 c6 130 29 192 95 260 3 3 5 28 4 55 0 28 4 64 9 80 24 79 20 119
-16 191 -19 38 -40 95 -47 127 -6 32 -17 62 -23 67 -7 5 -32 25 -57 43 l-45
33 1 125 c1 116 8 261 19 389 17 195 16 206 -9 231 -25 25 -96 52 -298 114
-64 20 -126 43 -137 53 -23 19 -27 60 -36 342 -3 74 -6 142 -8 151 -5 26 -35
67 -58 80 -22 11 -31 13 -132 24 -32 4 -68 8 -80 11 -12 2 -51 9 -87 15 -79
14 -158 42 -223 81 -47 27 -67 32 -97 21z m74 -508 c32 -8 61 -16 63 -19 2 -2
4 -46 4 -97 1 -92 2 -97 50 -197 l50 -103 -37 -45 -37 -44 -66 130 c-37 71
-74 139 -83 149 -13 16 -31 19 -101 20 -47 1 -107 4 -134 7 -59 6 -143 32
-143 45 0 26 326 184 360 174 8 -2 42 -11 74 -20z"/>
<path d="M8380 9414 c237 -138 403 -266 586 -448 177 -178 285 -309 416 -511
84 -128 192 -333 253 -480 20 -49 44 -106 52 -127 8 -20 32 -94 52 -165 l37
-128 443 -1 c243 -1 440 1 439 5 -2 3 -10 18 -17 34 -8 15 -18 27 -23 27 -4 0
-8 4 -8 9 0 9 -97 152 -180 266 -101 138 -246 332 -257 343 -7 8 -26 30 -41
50 -15 21 -29 39 -32 42 -3 3 -25 30 -50 60 -25 30 -47 57 -50 60 -3 3 -30 34
-60 70 -140 164 -367 393 -515 517 -131 110 -315 233 -431 289 -108 51 -246
90 -354 99 -78 7 -320 42 -355 51 -11 3 32 -25 95 -62z"/>
<path d="M10746 7408 c2 -13 27 -144 54 -293 28 -148 52 -279 54 -290 2 -11
11 -58 20 -105 8 -47 17 -96 20 -110 2 -14 14 -79 27 -144 l23 -120 22 90 c32
131 102 330 135 382 10 16 4 31 -38 93 -27 41 -64 101 -83 134 -37 68 -219
366 -230 378 -4 5 -6 -2 -4 -15z"/>
<path d="M2527 7094 c-1 -1 -26 -4 -55 -8 -149 -18 -210 -34 -315 -86 -211
-106 -343 -266 -437 -534 -16 -45 -31 -92 -33 -106 -3 -14 -12 -52 -20 -85 -9
-33 -19 -82 -22 -110 -4 -27 -9 -61 -11 -75 -26 -169 -26 -2060 0 -2196 2 -12
7 -45 11 -75 15 -121 75 -328 130 -443 100 -212 255 -361 455 -440 43 -17 56
-21 109 -32 14 -3 28 -7 31 -9 29 -18 317 -26 425 -12 261 32 478 169 589 371
50 91 80 186 112 356 3 19 8 168 11 331 l5 296 -279 0 c-153 0 -283 -2 -289
-4 -9 -3 -12 -70 -12 -231 0 -245 -5 -307 -28 -392 -33 -117 -100 -203 -186
-240 -42 -18 -64 -21 -122 -17 -95 6 -147 29 -199 87 -68 76 -101 192 -113
405 -9 148 -9 2135 0 2255 10 139 37 256 79 353 6 15 15 27 19 27 5 0 8 6 8
14 0 24 81 86 134 101 99 30 189 14 249 -43 56 -53 110 -172 123 -271 3 -25 8
-48 9 -51 7 -12 18 -204 20 -350 2 -85 3 -157 4 -160 1 -6 499 -5 506 1 2 3 7
23 10 45 4 21 8 46 10 54 4 14 8 37 22 145 2 22 6 114 8 205 5 233 -20 378
-90 525 -40 82 -68 119 -150 198 -100 97 -284 176 -452 192 -59 6 -261 13
-266 9z"/>
<path d="M12398 7095 c-2 -2 -44 -5 -93 -8 -267 -16 -496 -130 -651 -322 -141
-175 -233 -448 -262 -780 -4 -44 -7 -494 -7 -1000 0 -818 5 -1063 20 -1107 2
-7 6 -35 9 -63 7 -76 63 -279 102 -375 127 -313 359 -513 649 -559 63 -10 263
-9 304 2 186 48 331 160 433 332 26 44 48 74 49 68 1 -7 2 -16 3 -20 1 -5 6
-28 10 -53 5 -25 10 -52 11 -60 2 -8 11 -66 21 -128 l19 -112 70 -1 c38 0 133
-1 210 -1 l140 -1 1 1052 1 1051 -469 0 -468 0 2 -207 3 -208 158 0 c150 0
157 -1 158 -20 4 -84 -1 -644 -5 -682 -7 -50 -19 -134 -21 -143 -1 -3 -5 -18
-9 -35 -58 -223 -171 -347 -330 -362 -181 -17 -303 63 -361 236 -48 143 -50
181 -50 1361 0 608 3 1139 7 1181 18 192 77 339 161 404 53 40 114 57 208 58
76 1 92 -2 143 -28 32 -16 71 -45 88 -64 33 -38 93 -157 103 -206 30 -140 38
-237 39 -432 1 -79 3 -143 6 -144 7 -1 440 -1 472 0 32 1 33 3 53 135 4 21 9
48 11 60 13 65 19 169 18 311 -1 140 -4 174 -28 270 -33 128 -70 212 -132 294
-109 145 -292 249 -500 285 -79 14 -288 28 -296 21z"/>
<path d="M14878 7095 c-2 -2 -39 -5 -83 -9 -289 -21 -516 -145 -661 -361 -69
-102 -163 -333 -180 -441 -3 -22 -8 -42 -10 -45 -2 -4 -6 -31 -10 -60 -3 -30
-8 -57 -10 -61 -14 -24 -19 -299 -19 -1133 0 -855 3 -1015 21 -1135 19 -128
67 -311 110 -413 91 -219 258 -398 452 -484 67 -29 178 -60 257 -70 75 -9 272
-10 346 -1 308 39 553 213 695 497 34 67 96 231 88 231 -3 0 0 9 6 19 11 21
38 141 46 206 3 22 7 46 9 52 15 45 20 327 20 1113 0 794 -4 1021 -19 1110 -3
14 -7 41 -10 60 -34 219 -105 415 -201 560 -137 207 -365 334 -636 355 -92 8
-208 13 -211 10z m180 -519 c134 -48 202 -177 230 -436 9 -86 9 -2276 0 -2360
-13 -114 -28 -178 -62 -254 -33 -74 -72 -115 -140 -147 -55 -26 -68 -28 -160
-26 -78 2 -112 7 -148 24 -97 44 -153 132 -191 301 -22 97 -22 97 -22 1252 0
635 3 1186 8 1224 17 152 64 287 124 352 74 83 237 114 361 70z"/>
<path d="M4007 7052 c-3 -4 -4 -937 -4 -2074 0 -1881 2 -2068 16 -2069 51 -2
849 3 911 5 100 5 171 14 250 32 36 9 76 18 90 20 45 9 154 56 235 102 93 53
222 176 280 267 68 107 146 296 169 407 3 13 12 55 20 93 38 182 41 262 41
1155 0 833 -3 921 -31 1085 -76 443 -263 732 -560 866 -105 48 -215 80 -324
95 -30 4 -66 9 -80 11 -48 7 -1010 12 -1013 5z m987 -476 c109 -26 178 -71
244 -161 21 -28 54 -112 71 -182 21 -81 28 -130 41 -273 9 -103 6 -1979 -4
-2035 -4 -22 -11 -71 -17 -110 -23 -162 -75 -281 -154 -354 -84 -78 -194 -107
-406 -110 l-137 -2 0 1625 -1 1625 147 -4 c86 -2 176 -10 216 -19z"/>
<path d="M6579 7047 c0 -7 -1 -940 -2 -2074 l-2 -2063 30 -1 c34 0 501 0 556
0 l36 1 1 763 c0 419 1 768 1 775 1 10 28 12 118 10 l116 -3 23 -65 c86 -244
239 -676 259 -730 30 -81 232 -653 248 -700 6 -19 14 -39 18 -44 6 -6 450 -11
641 -7 l28 1 -16 43 c-9 23 -22 56 -29 72 -7 17 -54 134 -105 260 -50 127
-133 334 -184 460 -338 837 -331 818 -312 829 202 122 310 250 403 476 32 78
77 248 88 335 4 28 9 61 11 75 23 144 19 587 -7 724 -5 28 -12 65 -15 81 -9
51 -62 203 -96 273 -41 84 -131 204 -198 262 -93 82 -298 185 -405 204 -13 3
-28 7 -32 9 -5 3 -30 8 -58 11 -27 4 -58 9 -67 12 -43 13 -124 15 -570 19
-362 3 -478 1 -479 -8z m886 -462 c17 -3 41 -8 55 -11 14 -3 34 -8 45 -10 45
-9 144 -66 184 -106 68 -69 112 -171 128 -302 10 -78 9 -662 -1 -741 -4 -32
-16 -92 -26 -132 -67 -260 -221 -362 -552 -366 -48 0 -91 2 -94 6 -4 4 -8 382
-8 841 l-1 834 120 -3 c66 -2 134 -7 150 -10z"/>
<path d="M9576 7035 c-3 -12 -17 -84 -30 -161 -14 -76 -32 -177 -41 -224 -9
-47 -20 -110 -25 -140 -6 -30 -12 -66 -15 -80 -5 -22 -46 -245 -60 -325 -3
-16 -13 -66 -21 -110 -8 -44 -17 -91 -20 -105 -2 -14 -11 -61 -19 -105 -8 -44
-17 -91 -19 -105 -2 -14 -11 -63 -20 -110 -8 -47 -18 -101 -21 -120 -3 -19 -8
-42 -10 -50 -2 -8 -7 -31 -10 -50 -7 -35 -26 -143 -70 -385 -3 -16 -19 -100
-35 -185 -16 -85 -34 -182 -40 -215 -5 -33 -12 -71 -15 -85 -3 -14 -8 -38 -10
-55 -7 -38 -23 -124 -28 -150 -3 -11 -8 -40 -12 -65 -4 -25 -9 -54 -11 -65 -2
-11 -13 -67 -24 -125 -10 -58 -26 -141 -34 -185 -21 -111 -25 -135 -32 -175
-3 -19 -7 -42 -9 -50 -2 -8 -7 -31 -10 -50 -3 -19 -10 -57 -15 -85 -5 -27 -11
-61 -14 -75 -2 -14 -15 -86 -30 -160 -14 -74 -28 -149 -31 -167 -3 -18 -11
-62 -19 -98 -12 -59 -12 -65 3 -65 27 -1 533 -1 582 -1 l46 1 13 88 c7 48 14
96 16 107 2 11 15 101 29 200 14 99 28 191 30 205 2 14 7 48 11 75 3 28 8 53
11 58 2 4 173 7 379 7 206 0 374 -3 375 -7 0 -5 2 -15 4 -23 1 -8 8 -51 15
-95 7 -44 14 -89 16 -100 2 -11 6 -38 9 -60 3 -22 7 -49 9 -60 2 -11 7 -42 10
-68 4 -27 9 -56 10 -65 2 -10 11 -72 21 -139 17 -112 20 -123 39 -124 130 -3
608 0 612 4 3 3 1 31 -5 63 -6 33 -13 75 -16 94 -3 19 -8 42 -10 50 -2 8 -6
26 -9 40 -2 14 -7 43 -11 65 -5 32 -40 219 -80 435 -13 67 -18 97 -46 250 -17
91 -33 176 -35 190 -2 14 -11 59 -18 100 -8 41 -24 126 -35 188 -12 61 -30
161 -42 222 -11 60 -22 122 -25 137 -2 16 -13 73 -24 128 -21 109 -23 119 -45
245 -8 47 -17 99 -20 115 -3 17 -8 37 -10 45 -2 8 -7 31 -10 50 -7 44 -23 137
-30 170 -3 14 -9 50 -15 80 -6 30 -12 66 -15 80 -3 14 -9 50 -15 80 -6 30 -12
65 -14 76 -2 12 -7 37 -10 55 -8 50 -15 88 -26 144 -5 28 -12 61 -14 75 -3 14
-17 88 -31 165 -15 77 -29 151 -31 165 -2 14 -11 59 -19 100 -8 41 -17 93 -20
115 -4 22 -8 47 -10 55 -3 8 -7 32 -11 54 -3 21 -8 48 -10 60 -6 26 -32 169
-40 217 l-6 36 -363 0 -364 0 -5 -22z m389 -897 c4 -29 8 -64 10 -78 2 -14 8
-59 14 -100 14 -105 21 -150 26 -185 3 -16 7 -48 10 -70 3 -22 12 -83 20 -135
7 -52 16 -117 20 -145 3 -27 8 -63 11 -80 2 -16 6 -43 8 -60 10 -77 37 -266
41 -283 2 -11 6 -43 10 -73 3 -30 8 -61 10 -69 2 -8 7 -44 10 -80 4 -36 8 -67
10 -70 1 -3 6 -32 9 -65 4 -33 9 -67 11 -75 2 -8 6 -37 10 -65 8 -63 44 -323
50 -352 3 -21 0 -23 -38 -24 -45 0 -520 0 -550 1 -15 0 -17 6 -12 43 10 71 13
91 20 132 3 22 8 55 10 73 4 30 10 74 20 142 2 14 6 44 10 68 8 50 10 68 19
147 4 33 9 67 11 75 2 8 7 38 10 65 3 28 8 61 10 75 3 14 7 41 10 60 2 19 14
103 25 185 12 83 24 164 27 180 3 17 5 37 5 45 0 8 4 33 8 55 5 22 11 64 14
94 4 30 9 64 11 75 2 12 7 44 10 71 5 42 15 113 50 350 3 17 7 51 11 78 9 64
30 62 39 -5z"/>
<path d="M16552 4983 l3 -2074 279 -2 278 -2 -5 975 c-3 536 -8 1000 -10 1030
-3 30 -8 107 -11 170 -7 138 -15 244 -21 285 -2 17 -7 75 -11 130 -3 55 -8
103 -11 108 -2 4 1 7 7 7 12 0 15 -5 80 -185 28 -77 58 -156 65 -175 8 -19 76
-201 150 -405 75 -203 140 -379 145 -390 5 -11 111 -297 235 -635 125 -338
232 -628 239 -645 7 -16 30 -77 50 -135 20 -58 41 -111 45 -118 6 -10 65 -13
252 -13 134 0 250 0 257 0 9 1 12 423 12 2075 l0 2073 -279 0 c-250 0 -280 -1
-283 -16 -2 -9 -3 -430 -3 -936 2 -798 5 -1055 20 -1290 6 -103 16 -241 20
-270 2 -16 6 -61 10 -100 3 -38 8 -92 11 -120 5 -47 4 -49 -10 -30 -8 11 -16
24 -16 28 0 9 -397 1111 -411 1142 -5 11 -26 70 -47 130 -35 99 -170 471 -257
710 -18 50 -77 212 -131 360 -53 149 -107 297 -119 330 l-22 60 -256 1 -257 2
2 -2075z"/>
<path d="M1045 5114 c-136 -47 -251 -110 -370 -201 -235 -181 -421 -402 -531
-630 -45 -94 -101 -250 -110 -313 -3 -19 -7 -37 -9 -40 -18 -30 -27 -364 -13
-480 35 -296 185 -650 378 -894 197 -249 326 -346 605 -456 167 -65 553 -183
706 -214 32 -7 49 -11 149 -34 157 -38 472 -104 645 -136 119 -22 143 -27 165
-31 14 -3 52 -10 85 -15 33 -6 112 -19 175 -30 63 -12 131 -23 150 -26 45 -7
80 -13 106 -18 12 -2 45 -7 75 -11 30 -4 56 -8 59 -10 3 -2 30 -6 60 -10 30
-4 57 -8 60 -10 3 -2 34 -6 70 -10 36 -4 67 -8 70 -10 3 -2 28 -6 55 -9 52 -7
57 -8 170 -25 39 -6 88 -13 110 -16 22 -3 54 -7 70 -10 17 -2 50 -7 75 -10 58
-8 97 -13 140 -20 19 -2 58 -7 85 -11 28 -3 61 -7 75 -9 14 -2 45 -7 70 -10
25 -3 61 -8 80 -10 19 -3 56 -7 83 -10 26 -3 60 -7 75 -9 15 -2 52 -7 82 -11
30 -4 66 -8 80 -10 14 -2 48 -6 75 -9 28 -3 70 -8 95 -11 25 -3 61 -7 80 -9
100 -10 157 -17 179 -22 52 -11 346 -4 441 11 168 26 235 41 358 77 54 16 81
30 100 53 15 18 46 54 69 81 47 57 164 172 208 205 17 13 32 26 35 30 18 23
193 131 285 175 107 52 282 105 392 120 26 3 51 8 54 10 3 2 41 6 85 9 43 4
90 8 104 10 14 2 90 7 170 10 375 16 447 22 655 60 122 23 300 82 615 204
l155 60 -1452 1 -1452 0 0 228 c1 125 0 235 0 245 -1 13 -26 -7 -85 -65 -172
-171 -394 -291 -651 -352 -95 -22 -113 -26 -165 -32 -25 -3 -67 -9 -95 -14
-27 -4 -386 -9 -797 -9 l-747 -2 -3 116 -3 115 -37 -25 c-55 -38 -218 -119
-295 -149 -59 -22 -228 -71 -258 -74 -5 -1 -28 -4 -50 -7 -22 -2 -60 -7 -85
-10 -53 -6 -304 -7 -340 -1 -14 3 -52 7 -85 11 -182 19 -409 100 -553 197
-311 209 -503 497 -606 907 -72 285 -79 382 -80 1070 -1 355 -5 555 -11 557
-6 1 -41 -9 -80 -22z"/>
<path d="M16035 2877 c-25 -40 -137 -146 -230 -214 -124 -93 -324 -193 -434
-218 -9 -3 -43 -11 -76 -19 -53 -13 -95 -19 -200 -32 -45 -5 -283 -4 -341 1
l-51 6 -43 -113 c-23 -62 -48 -126 -56 -143 -7 -16 -36 -86 -64 -155 -85 -206
-176 -399 -332 -710 -81 -162 -148 -298 -148 -302 0 -5 427 -8 949 -8 l950 0
20 53 c49 133 139 454 154 552 3 17 8 41 11 55 6 28 15 72 21 110 2 14 6 40 9
58 9 47 14 81 21 142 4 30 9 63 11 74 2 10 6 53 10 95 3 42 7 78 9 81 2 3 6
58 10 123 l6 117 -95 0 -96 0 -2 233 c-2 167 -6 227 -13 214z"/>
<path d="M13947 2723 c-2 -5 -3 -66 -2 -138 1 -71 0 -136 -3 -142 -3 -10 -36
-13 -118 -13 -63 0 -114 -1 -114 -3 0 -2 18 -54 40 -116 51 -142 112 -354 144
-496 25 -111 29 -128 41 -200 18 -107 13 -107 64 -4 92 185 181 387 310 704
32 79 61 158 59 160 -2 2 -42 21 -89 43 -73 34 -213 114 -229 132 -22 24 -100
79 -103 73z"/>
<path d="M11656 2503 c8 -32 14 -61 14 -65 0 -5 -373 -8 -830 -8 -657 0 -830
3 -831 13 -2 27 -11 72 -15 76 -10 10 -96 -45 -105 -66 -6 -17 -17 -23 -39
-23 -32 0 -65 -14 -300 -127 -203 -98 -234 -113 -415 -188 -411 -172 -723
-271 -945 -301 -30 -4 -64 -8 -75 -10 -94 -12 -205 -21 -395 -30 -74 -3 -137
-8 -140 -9 -3 -2 -5 -21 -4 -42 1 -21 5 -101 9 -178 3 -77 8 -167 11 -200 12
-158 19 -239 30 -327 l6 -48 3023 0 c2874 0 3024 1 3020 17 -1 10 -6 47 -10
83 -4 36 -9 74 -11 85 -2 11 -6 47 -9 80 -3 33 -7 69 -9 80 -2 11 -7 49 -11
85 -11 102 -15 134 -20 150 -2 8 -7 31 -10 50 -10 60 -73 313 -90 364 -9 26
-18 56 -20 65 -5 25 -72 218 -109 313 l-32 83 -350 3 c-283 2 -359 0 -404 -12
-30 -8 -71 -17 -90 -20 -40 -7 -315 -8 -345 -2 -11 2 -47 7 -80 11 -81 9 -231
58 -335 109 -47 22 -88 42 -91 44 -4 2 0 -23 7 -55z"/>
</g>
</svg>
